<?xml version="1.0" standalone="no"?>
<!DOCTYPE svg PUBLIC "-//W3C//DTD SVG 20010904//EN"
 "http://www.w3.org/TR/2001/REC-SVG-20010904/DTD/svg10.dtd">
<svg version="1.0" xmlns="http://www.w3.org/2000/svg"
 width="640.000000pt" height="496.000000pt" viewBox="0 0 640.000000 496.000000"
 preserveAspectRatio="xMidYMid meet">

<g transform="translate(0.000000,496.000000) scale(0.100000,-0.100000)"
fill="#000000" stroke="none">
<path d="M1980 4806 c0 -3 9 -10 20 -16 11 -6 20 -8 20 -6 0 3 -9 10 -20 16
-11 6 -20 8 -20 6z"/>
<path d="M2030 4776 c0 -2 14 -14 30 -26 17 -12 30 -19 30 -16 0 2 -13 14 -30
26 -16 12 -30 19 -30 16z"/>
<path d="M2250 4585 c52 -55 99 -104 104 -110 5 -5 0 4 -12 20 -11 17 -58 66
-104 110 l-83 80 95 -100z"/>
<path d="M2432 4368 c8 -13 34 -53 57 -90 41 -65 65 -92 40 -45 -20 36 -101
157 -107 157 -2 0 2 -10 10 -22z"/>
<path d="M2590 4110 c11 -22 23 -40 25 -40 3 0 -4 18 -15 40 -11 22 -23 40
-25 40 -3 0 4 -18 15 -40z"/>
<path d="M2621 4055 c0 -5 8 -26 19 -45 11 -19 19 -30 19 -25 0 6 -8 26 -19
45 -11 19 -19 31 -19 25z"/>
<path d="M2697 3887 c3 -16 19 -63 35 -105 17 -42 45 -126 64 -187 40 -127 46
-143 38 -95 -8 46 -96 312 -123 370 -13 30 -18 35 -14 17z"/>
<path d="M3686 3865 c-9 -26 -7 -32 5 -12 6 10 9 21 6 23 -2 3 -7 -2 -11 -11z"/>
<path d="M3666 3815 c-9 -26 -7 -32 5 -12 6 10 9 21 6 23 -2 3 -7 -2 -11 -11z"/>
<path d="M3636 3735 c-9 -26 -7 -32 5 -12 6 10 9 21 6 23 -2 3 -7 -2 -11 -11z"/>
<path d="M2841 3444 c0 -11 3 -14 6 -6 3 7 2 16 -1 19 -3 4 -6 -2 -5 -13z"/>
<path d="M2851 3404 c0 -11 3 -14 6 -6 3 7 2 16 -1 19 -3 4 -6 -2 -5 -13z"/>
<path d="M2861 3364 c0 -11 3 -14 6 -6 3 7 2 16 -1 19 -3 4 -6 -2 -5 -13z"/>
<path d="M2872 3320 c0 -14 2 -19 5 -12 2 6 2 18 0 25 -3 6 -5 1 -5 -13z"/>
<path d="M2881 3274 c0 -11 3 -14 6 -6 3 7 2 16 -1 19 -3 4 -6 -2 -5 -13z"/>
<path d="M2891 3224 c0 -11 3 -14 6 -6 3 7 2 16 -1 19 -3 4 -6 -2 -5 -13z"/>
<path d="M690 3169 c-398 -104 -672 -506 -647 -948 4 -58 13 -134 22 -169 78
-324 301 -568 605 -664 64 -19 95 -23 210 -22 147 0 215 13 326 64 139 63 271
177 359 311 57 86 86 151 122 268 25 80 27 99 27 271 0 174 -2 191 -28 275
-96 313 -324 542 -615 616 -102 26 -278 25 -381 -2z m-14 -225 c57 -32 67 -60
68 -170 0 -48 -5 -70 -27 -106 -69 -118 -219 -172 -318 -116 -22 12 -39 25
-39 30 0 4 -5 7 -12 6 -21 -5 -48 63 -48 122 1 95 58 183 153 232 85 43 151
44 223 2z m843 -833 c44 -43 55 -79 55 -176 -1 -127 -124 -310 -279 -414 -146
-97 -365 -127 -474 -65 -87 50 -122 95 -136 178 -6 37 -5 38 17 31 13 -4 73
-9 133 -12 83 -4 126 -1 175 12 199 51 364 211 430 415 12 39 26 70 31 70 4 0
26 -18 48 -39z"/>
<path d="M2901 3174 c0 -11 3 -14 6 -6 3 7 2 16 -1 19 -3 4 -6 -2 -5 -13z"/>
<path d="M4120 3170 c-396 -107 -674 -512 -647 -945 25 -404 264 -722 627
-837 98 -30 307 -33 410 -5 476 131 752 665 605 1173 -83 284 -297 514 -560
601 -112 37 -323 43 -435 13z m-14 -226 c57 -32 67 -60 68 -170 0 -48 -5 -70
-27 -106 -50 -86 -139 -138 -234 -138 -48 0 -75 11 -111 44 -13 11 -27 19 -30
16 -15 -11 -42 67 -42 120 1 95 58 183 153 232 85 43 151 44 223 2z m843 -833
c44 -44 56 -81 55 -176 -1 -71 -28 -138 -98 -237 -75 -107 -170 -183 -288
-230 -144 -58 -280 -61 -372 -9 -83 48 -115 92 -130 180 -6 31 -4 33 17 26 12
-4 72 -9 132 -12 83 -4 126 -1 175 12 201 52 370 217 433 421 10 35 23 64 28
64 4 0 26 -18 48 -39z"/>
<path d="M2911 3114 c0 -11 3 -14 6 -6 3 7 2 16 -1 19 -3 4 -6 -2 -5 -13z"/>
<path d="M2921 3044 c0 -11 3 -14 6 -6 3 7 2 16 -1 19 -3 4 -6 -2 -5 -13z"/>
<path d="M2932 2970 c0 -14 2 -19 5 -12 2 6 2 18 0 25 -3 6 -5 1 -5 -13z"/>
<path d="M2942 2875 c0 -16 2 -22 5 -12 2 9 2 23 0 30 -3 6 -5 -1 -5 -18z"/>
<path d="M2953 2755 c0 -22 2 -30 4 -17 2 12 2 30 0 40 -3 9 -5 -1 -4 -23z"/>
<path d="M2964 2480 c0 -69 1 -97 3 -62 2 34 2 90 0 125 -2 34 -3 6 -3 -63z"/>
<path d="M3434 2480 c0 -69 1 -97 3 -62 2 34 2 90 0 125 -2 34 -3 6 -3 -63z"/>
<path d="M2953 2210 c0 -25 2 -35 4 -22 2 12 2 32 0 45 -2 12 -4 2 -4 -23z"/>
<path d="M2942 2090 c0 -19 2 -27 5 -17 2 9 2 25 0 35 -3 9 -5 1 -5 -18z"/>
<path d="M2932 1995 c0 -16 2 -22 5 -12 2 9 2 23 0 30 -3 6 -5 -1 -5 -18z"/>
<path d="M2922 1925 c0 -16 2 -22 5 -12 2 9 2 23 0 30 -3 6 -5 -1 -5 -18z"/>
<path d="M2912 1855 c0 -16 2 -22 5 -12 2 9 2 23 0 30 -3 6 -5 -1 -5 -18z"/>
<path d="M2902 1795 c0 -16 2 -22 5 -12 2 9 2 23 0 30 -3 6 -5 -1 -5 -18z"/>
<path d="M2867 1637 c-27 -123 -79 -291 -156 -506 -22 -63 -39 -116 -37 -118
5 -6 58 123 99 242 50 144 136 489 125 501 -2 2 -16 -52 -31 -119z"/>
<path d="M3561 1474 c0 -11 3 -14 6 -6 3 7 2 16 -1 19 -3 4 -6 -2 -5 -13z"/>
<path d="M3571 1440 c0 -8 4 -24 9 -35 5 -13 9 -14 9 -5 0 8 -4 24 -9 35 -5
13 -9 14 -9 5z"/>
<path d="M3600 1343 c0 -7 21 -70 46 -140 48 -131 69 -181 58 -131 -8 38 -103
286 -104 271z"/>
<path d="M6181 1219 c-6 -18 -9 -34 -7 -36 2 -2 9 10 15 28 6 18 9 34 7 36 -2
2 -9 -10 -15 -28z"/>
<path d="M6151 1139 c-6 -18 -9 -34 -7 -36 2 -2 9 10 15 28 6 18 9 34 7 36 -2
2 -9 -10 -15 -28z"/>
<path d="M2611 904 c-27 -55 -78 -143 -113 -196 -35 -54 -74 -115 -87 -137
-13 -21 -82 -99 -155 -173 -100 -104 -153 -150 -226 -196 -209 -132 -322 -171
-530 -182 l-135 -7 108 -1 c214 -4 403 59 597 196 151 107 334 313 453 508 65
106 150 274 143 281 -3 3 -27 -39 -55 -93z"/>
<path d="M3730 996 c0 -10 90 -186 95 -186 5 0 -82 179 -91 189 -2 2 -4 1 -4
-3z"/>
<path d="M3845 770 c30 -58 127 -202 133 -196 3 4 -25 52 -63 109 -77 115 -95
138 -70 87z"/>
<path d="M5927 693 c-58 -91 -59 -93 -53 -93 4 0 25 30 49 68 58 90 59 92 53
92 -4 0 -25 -30 -49 -67z"/>
<path d="M487 649 c10 -17 24 -36 32 -42 8 -7 2 7 -14 31 -32 49 -45 57 -18
11z"/>
<path d="M3990 546 c0 -2 8 -10 18 -17 15 -13 16 -12 3 4 -13 16 -21 21 -21
13z"/>
<path d="M5703 402 c-129 -136 -134 -143 -44 -57 66 64 158 165 149 165 -2 0
-49 -48 -105 -108z"/>
<path d="M4057 465 c46 -58 193 -201 193 -189 0 6 -26 35 -58 65 -31 30 -76
75 -99 100 -53 60 -78 76 -36 24z"/>
<path d="M640 447 c0 -2 15 -16 33 -33 l32 -29 -29 33 c-28 30 -36 37 -36 29z"/>
<path d="M770 315 c19 -19 36 -35 39 -35 3 0 -10 16 -29 35 -19 19 -36 35 -39
35 -3 0 10 -16 29 -35z"/>
<path d="M4269 256 c23 -28 173 -124 244 -156 75 -34 228 -80 261 -79 11 0
-22 11 -74 25 -94 24 -232 87 -320 146 -91 62 -125 82 -111 64z"/>
<path d="M5510 229 c-79 -53 -204 -125 -250 -143 -25 -10 -85 -29 -135 -42
-49 -12 -80 -23 -69 -24 36 0 192 48 270 85 68 31 218 127 230 146 8 14 2 11
-46 -22z"/>
<path d="M850 246 c0 -7 159 -111 208 -136 68 -33 59 -18 -11 19 -34 19 -87
50 -117 71 -71 47 -80 52 -80 46z"/>
<path d="M1130 80 c8 -5 20 -10 25 -10 6 0 3 5 -5 10 -8 5 -19 10 -25 10 -5 0
-3 -5 5 -10z"/>
<path d="M1238 43 c7 -3 16 -2 19 1 4 3 -2 6 -13 5 -11 0 -14 -3 -6 -6z"/>
<path d="M1290 30 c14 -4 34 -8 45 -8 16 0 15 2 -5 8 -14 4 -34 8 -45 8 -16 0
-15 -2 5 -8z"/>
<path d="M4858 13 c34 -2 88 -2 120 0 31 2 3 3 -63 3 -66 0 -92 -1 -57 -3z"/>
</g>
</svg>
